<?xml version="1.0" standalone="no"?>
<!DOCTYPE svg PUBLIC "-//W3C//DTD SVG 20010904//EN"
 "http://www.w3.org/TR/2001/REC-SVG-20010904/DTD/svg10.dtd">
<svg version="1.0" xmlns="http://www.w3.org/2000/svg"
 width="1000.000000pt" height="1000.000000pt" viewBox="0 0 1000.000000 1000.000000"
 preserveAspectRatio="xMidYMid meet">

<g transform="translate(0.000000,1000.000000) scale(0.100000,-0.100000)"
fill="#000000" stroke="none">
<path d="M0 5000 l0 -5000 5000 0 5000 0 0 5000 0 5000 -5000 0 -5000 0 0
-5000z m9000 2625 l0 -1875 -165 0 -165 0 -6 28 c-79 347 -170 604 -314 892
-367 734 -946 1313 -1680 1680 -953 477 -2049 524 -3045 133 -957 -376 -1732
-1151 -2108 -2108 -79 -200 -126 -356 -181 -597 l-6 -28 -165 0 -165 0 0 1875
0 1875 4000 0 4000 0 0 -1875z m-3551 851 c657 -94 1205 -325 1726 -728 155
-119 454 -418 573 -573 405 -524 634 -1070 729 -1736 25 -177 25 -701 0 -878
-95 -666 -324 -1212 -729 -1736 -119 -155 -418 -454 -573 -573 -524 -405
-1070 -634 -1736 -729 -177 -25 -701 -25 -878 0 -666 95 -1212 324 -1736 729
-155 119 -454 418 -573 573 -405 524 -634 1070 -729 1736 -25 177 -25 701 0
878 95 667 326 1218 729 1735 106 136 316 357 443 467 551 474 1210 761 1935
844 169 19 659 13 819 -9z m-4113 -4253 c79 -348 170 -605 314 -893 367 -734
946 -1313 1680 -1680 953 -477 2049 -524 3045 -133 957 376 1732 1151 2108
2108 79 200 126 356 181 598 l6 27 165 0 165 0 0 -1875 0 -1875 -4000 0 -4000
0 0 1875 0 1875 165 0 165 0 6 -27z"/>
<path d="M3110 5009 l0 -2781 1143 5 c1140 4 1219 7 1472 42 823 116 1425 637
1544 1336 61 357 21 720 -109 994 -177 372 -521 641 -965 755 -70 18 -111 33
-113 43 -2 9 31 34 89 67 254 147 466 370 560 590 60 141 81 247 86 436 12
384 -86 658 -308 869 -132 125 -311 226 -531 300 -321 107 -601 124 -2010 125
l-858 0 0 -2781z m2245 2122 c390 -50 609 -202 682 -471 28 -101 25 -384 -5
-503 -56 -226 -163 -363 -365 -468 -103 -53 -198 -85 -332 -111 -104 -20 -151
-21 -802 -25 l-693 -4 0 801 0 802 713 -5 c450 -3 745 -9 802 -16z m110 -2211
c368 -27 576 -92 775 -245 207 -159 293 -380 293 -755 0 -307 -62 -489 -226
-666 -156 -168 -350 -270 -612 -323 -250 -50 -324 -54 -1112 -58 l-743 -5 0
1031 0 1031 743 0 c408 0 805 -5 882 -10z"/>
</g>
</svg>
